<mxfile host="app.diagrams.net" modified="2023-11-05T13:15:22.650Z" agent="Mozilla/5.0 (Windows NT 10.0; Win64; x64) AppleWebKit/537.36 (KHTML, like Gecko) Chrome/119.0.0.0 Safari/537.36" etag="-W0m7BRCcGb3xlVbeY95" version="22.0.8" type="github">
  <diagram name="Pagina-1" id="ADZPiPbb6VvXdIANlrha">
    <mxGraphModel dx="1400" dy="765" grid="1" gridSize="10" guides="1" tooltips="1" connect="1" arrows="1" fold="1" page="1" pageScale="1" pageWidth="827" pageHeight="1169" math="0" shadow="0">
      <root>
        <mxCell id="0" />
        <mxCell id="1" parent="0" />
        <mxCell id="j0ca5MtTTBlyfuUzAhWS-7" style="edgeStyle=orthogonalEdgeStyle;rounded=0;orthogonalLoop=1;jettySize=auto;html=1;exitX=0.5;exitY=1;exitDx=0;exitDy=0;exitPerimeter=0;" edge="1" parent="1" source="j0ca5MtTTBlyfuUzAhWS-1">
          <mxGeometry relative="1" as="geometry">
            <mxPoint x="100" y="160" as="targetPoint" />
          </mxGeometry>
        </mxCell>
        <mxCell id="j0ca5MtTTBlyfuUzAhWS-1" value="Lucrari cadastru GIS" style="shape=cylinder3;whiteSpace=wrap;html=1;boundedLbl=1;backgroundOutline=1;size=15;labelBorderColor=none;labelBackgroundColor=#00FF00;fillColor=#00FF00;" vertex="1" parent="1">
          <mxGeometry x="50" y="30" width="100" height="120" as="geometry" />
        </mxCell>
        <mxCell id="j0ca5MtTTBlyfuUzAhWS-3" value="sectoare_cadastrale" style="rounded=0;whiteSpace=wrap;html=1;fillColor=#00FF00;" vertex="1" parent="1">
          <mxGeometry x="790" y="230" width="120" height="60" as="geometry" />
        </mxCell>
        <mxCell id="j0ca5MtTTBlyfuUzAhWS-4" value="retea_sprijin" style="rounded=0;whiteSpace=wrap;html=1;fontColor=#000000;strokeColor=#000000;fillColor=#00FF00;" vertex="1" parent="1">
          <mxGeometry x="1000" y="340" width="120" height="60" as="geometry" />
        </mxCell>
        <mxCell id="j0ca5MtTTBlyfuUzAhWS-5" value="echipa" style="rounded=0;whiteSpace=wrap;html=1;" vertex="1" parent="1">
          <mxGeometry x="230" y="630" width="120" height="60" as="geometry" />
        </mxCell>
        <mxCell id="j0ca5MtTTBlyfuUzAhWS-6" value="angajati" style="rounded=0;whiteSpace=wrap;html=1;" vertex="1" parent="1">
          <mxGeometry x="10" y="630" width="120" height="60" as="geometry" />
        </mxCell>
        <mxCell id="j0ca5MtTTBlyfuUzAhWS-8" value="echipament" style="rounded=0;whiteSpace=wrap;html=1;" vertex="1" parent="1">
          <mxGeometry x="520" y="340" width="120" height="60" as="geometry" />
        </mxCell>
        <mxCell id="j0ca5MtTTBlyfuUzAhWS-9" value="hardware" style="rounded=0;whiteSpace=wrap;html=1;" vertex="1" parent="1">
          <mxGeometry x="1010" y="970" width="120" height="60" as="geometry" />
        </mxCell>
        <mxCell id="j0ca5MtTTBlyfuUzAhWS-10" value="flota" style="rounded=0;whiteSpace=wrap;html=1;" vertex="1" parent="1">
          <mxGeometry x="594" y="620" width="120" height="60" as="geometry" />
        </mxCell>
        <mxCell id="j0ca5MtTTBlyfuUzAhWS-11" value="documente" style="rounded=0;whiteSpace=wrap;html=1;" vertex="1" parent="1">
          <mxGeometry x="1361" y="1080" width="120" height="60" as="geometry" />
        </mxCell>
        <mxCell id="j0ca5MtTTBlyfuUzAhWS-12" value="masuratoare" style="rounded=0;whiteSpace=wrap;html=1;" vertex="1" parent="1">
          <mxGeometry x="90" y="480" width="120" height="60" as="geometry" />
        </mxCell>
        <mxCell id="j0ca5MtTTBlyfuUzAhWS-13" value="proprietar" style="rounded=0;whiteSpace=wrap;html=1;" vertex="1" parent="1">
          <mxGeometry x="880" y="700" width="120" height="60" as="geometry" />
        </mxCell>
        <mxCell id="j0ca5MtTTBlyfuUzAhWS-14" value="primarie" style="rounded=0;whiteSpace=wrap;html=1;" vertex="1" parent="1">
          <mxGeometry x="970" y="110" width="120" height="60" as="geometry" />
        </mxCell>
        <mxCell id="j0ca5MtTTBlyfuUzAhWS-16" value="dosar" style="rounded=0;whiteSpace=wrap;html=1;" vertex="1" parent="1">
          <mxGeometry x="1150" y="850" width="120" height="60" as="geometry" />
        </mxCell>
        <mxCell id="j0ca5MtTTBlyfuUzAhWS-17" value="templates" style="rounded=0;whiteSpace=wrap;html=1;" vertex="1" parent="1">
          <mxGeometry x="1170" y="970" width="120" height="60" as="geometry" />
        </mxCell>
        <mxCell id="j0ca5MtTTBlyfuUzAhWS-18" value="planse" style="rounded=0;whiteSpace=wrap;html=1;" vertex="1" parent="1">
          <mxGeometry x="990" y="850" width="120" height="60" as="geometry" />
        </mxCell>
        <mxCell id="j0ca5MtTTBlyfuUzAhWS-19" value="respingeri" style="rounded=0;whiteSpace=wrap;html=1;" vertex="1" parent="1">
          <mxGeometry x="1170" y="1090" width="120" height="60" as="geometry" />
        </mxCell>
        <mxCell id="j0ca5MtTTBlyfuUzAhWS-20" value="completari" style="rounded=0;whiteSpace=wrap;html=1;" vertex="1" parent="1">
          <mxGeometry x="1330" y="860" width="120" height="60" as="geometry" />
        </mxCell>
        <mxCell id="j0ca5MtTTBlyfuUzAhWS-21" value="contestatii" style="rounded=0;whiteSpace=wrap;html=1;" vertex="1" parent="1">
          <mxGeometry x="1350" y="970" width="120" height="60" as="geometry" />
        </mxCell>
        <mxCell id="j0ca5MtTTBlyfuUzAhWS-23" value="software" style="rounded=0;whiteSpace=wrap;html=1;" vertex="1" parent="1">
          <mxGeometry x="1000" y="1090" width="120" height="60" as="geometry" />
        </mxCell>
        <mxCell id="j0ca5MtTTBlyfuUzAhWS-24" value="UAT" style="rounded=0;whiteSpace=wrap;html=1;strokeColor=#000000;fillColor=#00FF00;" vertex="1" parent="1">
          <mxGeometry x="570" y="180" width="120" height="60" as="geometry" />
        </mxCell>
        <mxCell id="j0ca5MtTTBlyfuUzAhWS-26" value="" style="edgeStyle=entityRelationEdgeStyle;fontSize=12;html=1;endArrow=ERoneToMany;rounded=0;exitX=1;exitY=0.5;exitDx=0;exitDy=0;" edge="1" parent="1" source="j0ca5MtTTBlyfuUzAhWS-24" target="j0ca5MtTTBlyfuUzAhWS-3">
          <mxGeometry width="100" height="100" relative="1" as="geometry">
            <mxPoint x="590" y="210" as="sourcePoint" />
            <mxPoint x="780" y="250" as="targetPoint" />
          </mxGeometry>
        </mxCell>
        <mxCell id="j0ca5MtTTBlyfuUzAhWS-27" value="judet" style="rounded=0;whiteSpace=wrap;html=1;fillColor=#00FF00;" vertex="1" parent="1">
          <mxGeometry x="370" y="150" width="120" height="60" as="geometry" />
        </mxCell>
        <mxCell id="j0ca5MtTTBlyfuUzAhWS-28" value="" style="edgeStyle=entityRelationEdgeStyle;fontSize=12;html=1;endArrow=ERoneToMany;rounded=0;entryX=0;entryY=0.5;entryDx=0;entryDy=0;exitX=1;exitY=0.5;exitDx=0;exitDy=0;" edge="1" parent="1" source="j0ca5MtTTBlyfuUzAhWS-27" target="j0ca5MtTTBlyfuUzAhWS-24">
          <mxGeometry width="100" height="100" relative="1" as="geometry">
            <mxPoint x="310" y="119.5" as="sourcePoint" />
            <mxPoint x="470" y="119.5" as="targetPoint" />
            <Array as="points">
              <mxPoint x="150" y="29.5" />
            </Array>
          </mxGeometry>
        </mxCell>
        <mxCell id="j0ca5MtTTBlyfuUzAhWS-29" value="tara" style="rounded=0;whiteSpace=wrap;html=1;fillColor=#00FF00;" vertex="1" parent="1">
          <mxGeometry x="170" y="100" width="120" height="60" as="geometry" />
        </mxCell>
        <mxCell id="j0ca5MtTTBlyfuUzAhWS-31" value="" style="edgeStyle=entityRelationEdgeStyle;fontSize=12;html=1;endArrow=ERoneToMany;rounded=0;exitX=1;exitY=0.5;exitDx=0;exitDy=0;entryX=0;entryY=0.633;entryDx=0;entryDy=0;entryPerimeter=0;" edge="1" parent="1" source="j0ca5MtTTBlyfuUzAhWS-29" target="j0ca5MtTTBlyfuUzAhWS-27">
          <mxGeometry width="100" height="100" relative="1" as="geometry">
            <mxPoint x="220" y="280" as="sourcePoint" />
            <mxPoint x="320" y="180" as="targetPoint" />
          </mxGeometry>
        </mxCell>
        <mxCell id="j0ca5MtTTBlyfuUzAhWS-32" value="companie" style="rounded=0;whiteSpace=wrap;html=1;" vertex="1" parent="1">
          <mxGeometry x="280" y="340" width="120" height="60" as="geometry" />
        </mxCell>
        <mxCell id="j0ca5MtTTBlyfuUzAhWS-33" value="" style="edgeStyle=entityRelationEdgeStyle;fontSize=12;html=1;endArrow=ERoneToMany;rounded=0;exitX=1;exitY=0.5;exitDx=0;exitDy=0;entryX=0;entryY=0.5;entryDx=0;entryDy=0;" edge="1" parent="1" source="j0ca5MtTTBlyfuUzAhWS-32" target="j0ca5MtTTBlyfuUzAhWS-8">
          <mxGeometry width="100" height="100" relative="1" as="geometry">
            <mxPoint x="180" y="500" as="sourcePoint" />
            <mxPoint x="410" y="330" as="targetPoint" />
          </mxGeometry>
        </mxCell>
        <mxCell id="j0ca5MtTTBlyfuUzAhWS-35" value="ANAF" style="rounded=0;whiteSpace=wrap;html=1;" vertex="1" parent="1">
          <mxGeometry x="40" y="340" width="120" height="60" as="geometry" />
        </mxCell>
        <mxCell id="j0ca5MtTTBlyfuUzAhWS-36" value="" style="edgeStyle=entityRelationEdgeStyle;fontSize=12;html=1;endArrow=ERmandOne;startArrow=ERmandOne;rounded=0;exitX=1;exitY=0.5;exitDx=0;exitDy=0;entryX=0;entryY=0.5;entryDx=0;entryDy=0;" edge="1" parent="1" source="j0ca5MtTTBlyfuUzAhWS-35" target="j0ca5MtTTBlyfuUzAhWS-32">
          <mxGeometry width="100" height="100" relative="1" as="geometry">
            <mxPoint x="220" y="430" as="sourcePoint" />
            <mxPoint x="280" y="370" as="targetPoint" />
            <Array as="points">
              <mxPoint x="90" y="490" />
            </Array>
          </mxGeometry>
        </mxCell>
        <mxCell id="j0ca5MtTTBlyfuUzAhWS-38" value="" style="edgeStyle=entityRelationEdgeStyle;fontSize=12;html=1;endArrow=ERmandOne;startArrow=ERmandOne;rounded=0;entryX=0.5;entryY=1;entryDx=0;entryDy=0;exitX=0.5;exitY=0;exitDx=0;exitDy=0;" edge="1" parent="1" source="j0ca5MtTTBlyfuUzAhWS-35" target="j0ca5MtTTBlyfuUzAhWS-29">
          <mxGeometry width="100" height="100" relative="1" as="geometry">
            <mxPoint x="120" y="300" as="sourcePoint" />
            <mxPoint x="220" y="200" as="targetPoint" />
          </mxGeometry>
        </mxCell>
        <mxCell id="j0ca5MtTTBlyfuUzAhWS-40" value="" style="edgeStyle=entityRelationEdgeStyle;fontSize=12;html=1;endArrow=ERoneToMany;rounded=0;exitX=0.443;exitY=1.033;exitDx=0;exitDy=0;exitPerimeter=0;entryX=1;entryY=0.393;entryDx=0;entryDy=0;entryPerimeter=0;" edge="1" parent="1" source="j0ca5MtTTBlyfuUzAhWS-32" target="j0ca5MtTTBlyfuUzAhWS-12">
          <mxGeometry width="100" height="100" relative="1" as="geometry">
            <mxPoint x="373.6400000000001" y="455.99" as="sourcePoint" />
            <mxPoint x="280" y="564.01" as="targetPoint" />
          </mxGeometry>
        </mxCell>
        <mxCell id="j0ca5MtTTBlyfuUzAhWS-41" value="masuratori_echipament" style="rounded=0;whiteSpace=wrap;html=1;fontSize=12;" vertex="1" parent="1">
          <mxGeometry x="376" y="490" width="144" height="70" as="geometry" />
        </mxCell>
        <mxCell id="j0ca5MtTTBlyfuUzAhWS-42" value="" style="edgeStyle=entityRelationEdgeStyle;fontSize=12;html=1;endArrow=ERoneToMany;rounded=0;exitX=1;exitY=0.75;exitDx=0;exitDy=0;entryX=0.05;entryY=0.5;entryDx=0;entryDy=0;entryPerimeter=0;" edge="1" parent="1" source="j0ca5MtTTBlyfuUzAhWS-12" target="j0ca5MtTTBlyfuUzAhWS-41">
          <mxGeometry width="100" height="100" relative="1" as="geometry">
            <mxPoint x="254" y="610" as="sourcePoint" />
            <mxPoint x="354" y="510" as="targetPoint" />
          </mxGeometry>
        </mxCell>
        <mxCell id="j0ca5MtTTBlyfuUzAhWS-43" value="" style="edgeStyle=entityRelationEdgeStyle;fontSize=12;html=1;endArrow=ERoneToMany;rounded=0;exitX=0.363;exitY=1.033;exitDx=0;exitDy=0;entryX=1.017;entryY=0.377;entryDx=0;entryDy=0;entryPerimeter=0;exitPerimeter=0;" edge="1" parent="1" source="j0ca5MtTTBlyfuUzAhWS-8" target="j0ca5MtTTBlyfuUzAhWS-41">
          <mxGeometry width="100" height="100" relative="1" as="geometry">
            <mxPoint x="540" y="541.4" as="sourcePoint" />
            <mxPoint x="655.24" y="440" as="targetPoint" />
            <Array as="points">
              <mxPoint x="646" y="546.4" />
            </Array>
          </mxGeometry>
        </mxCell>
        <mxCell id="j0ca5MtTTBlyfuUzAhWS-44" value="angajati_echipa" style="rounded=0;whiteSpace=wrap;html=1;" vertex="1" parent="1">
          <mxGeometry x="20" y="780" width="120" height="60" as="geometry" />
        </mxCell>
        <mxCell id="j0ca5MtTTBlyfuUzAhWS-47" value="" style="edgeStyle=entityRelationEdgeStyle;fontSize=12;html=1;endArrow=ERoneToMany;rounded=0;entryX=1.01;entryY=0.62;entryDx=0;entryDy=0;entryPerimeter=0;exitX=0.403;exitY=0.967;exitDx=0;exitDy=0;exitPerimeter=0;" edge="1" parent="1" source="j0ca5MtTTBlyfuUzAhWS-5" target="j0ca5MtTTBlyfuUzAhWS-44">
          <mxGeometry width="100" height="100" relative="1" as="geometry">
            <mxPoint x="330" y="710" as="sourcePoint" />
            <mxPoint x="420" y="750" as="targetPoint" />
          </mxGeometry>
        </mxCell>
        <mxCell id="j0ca5MtTTBlyfuUzAhWS-48" value="" style="edgeStyle=entityRelationEdgeStyle;fontSize=12;html=1;endArrow=ERoneToMany;rounded=0;exitX=0.5;exitY=1;exitDx=0;exitDy=0;entryX=0.5;entryY=0;entryDx=0;entryDy=0;" edge="1" parent="1" source="j0ca5MtTTBlyfuUzAhWS-6" target="j0ca5MtTTBlyfuUzAhWS-44">
          <mxGeometry width="100" height="100" relative="1" as="geometry">
            <mxPoint x="210" y="740" as="sourcePoint" />
            <mxPoint x="310" y="640" as="targetPoint" />
            <Array as="points">
              <mxPoint x="260" y="710" />
            </Array>
          </mxGeometry>
        </mxCell>
        <mxCell id="j0ca5MtTTBlyfuUzAhWS-49" value="" style="edgeStyle=entityRelationEdgeStyle;fontSize=12;html=1;endArrow=ERoneToMany;rounded=0;exitX=0.25;exitY=0;exitDx=0;exitDy=0;entryX=0.393;entryY=1.06;entryDx=0;entryDy=0;entryPerimeter=0;" edge="1" parent="1" source="j0ca5MtTTBlyfuUzAhWS-5" target="j0ca5MtTTBlyfuUzAhWS-12">
          <mxGeometry width="100" height="100" relative="1" as="geometry">
            <mxPoint x="240" y="675" as="sourcePoint" />
            <mxPoint x="200" y="580" as="targetPoint" />
            <Array as="points">
              <mxPoint x="-20" y="670" />
            </Array>
          </mxGeometry>
        </mxCell>
        <mxCell id="j0ca5MtTTBlyfuUzAhWS-50" value="echipa_flota" style="rounded=0;whiteSpace=wrap;html=1;" vertex="1" parent="1">
          <mxGeometry x="474" y="780" width="120" height="60" as="geometry" />
        </mxCell>
        <mxCell id="j0ca5MtTTBlyfuUzAhWS-51" value="" style="edgeStyle=entityRelationEdgeStyle;fontSize=12;html=1;endArrow=ERoneToMany;rounded=0;exitX=0.75;exitY=1;exitDx=0;exitDy=0;entryX=0;entryY=0.5;entryDx=0;entryDy=0;" edge="1" parent="1" source="j0ca5MtTTBlyfuUzAhWS-5" target="j0ca5MtTTBlyfuUzAhWS-50">
          <mxGeometry width="100" height="100" relative="1" as="geometry">
            <mxPoint x="410" y="760" as="sourcePoint" />
            <mxPoint x="510" y="660" as="targetPoint" />
            <Array as="points">
              <mxPoint x="-20" y="900" />
              <mxPoint x="50" y="890" />
            </Array>
          </mxGeometry>
        </mxCell>
        <mxCell id="j0ca5MtTTBlyfuUzAhWS-52" value="" style="edgeStyle=entityRelationEdgeStyle;fontSize=12;html=1;endArrow=ERoneToMany;rounded=0;exitX=0.407;exitY=0.98;exitDx=0;exitDy=0;exitPerimeter=0;entryX=0.75;entryY=0;entryDx=0;entryDy=0;" edge="1" parent="1" source="j0ca5MtTTBlyfuUzAhWS-10" target="j0ca5MtTTBlyfuUzAhWS-50">
          <mxGeometry width="100" height="100" relative="1" as="geometry">
            <mxPoint x="694" y="780" as="sourcePoint" />
            <mxPoint x="794" y="680" as="targetPoint" />
          </mxGeometry>
        </mxCell>
        <mxCell id="j0ca5MtTTBlyfuUzAhWS-57" value="" style="edgeStyle=entityRelationEdgeStyle;fontSize=12;html=1;endArrow=ERmandOne;startArrow=ERmandOne;rounded=0;exitX=1;exitY=0.75;exitDx=0;exitDy=0;entryX=0;entryY=0.5;entryDx=0;entryDy=0;" edge="1" parent="1" source="j0ca5MtTTBlyfuUzAhWS-3" target="j0ca5MtTTBlyfuUzAhWS-4">
          <mxGeometry width="100" height="100" relative="1" as="geometry">
            <mxPoint x="970" y="330" as="sourcePoint" />
            <mxPoint x="1070" y="230" as="targetPoint" />
            <Array as="points">
              <mxPoint x="1040" y="290" />
            </Array>
          </mxGeometry>
        </mxCell>
        <mxCell id="j0ca5MtTTBlyfuUzAhWS-58" value="" style="edgeStyle=entityRelationEdgeStyle;fontSize=12;html=1;endArrow=ERmandOne;startArrow=ERmandOne;rounded=0;entryX=0;entryY=0.5;entryDx=0;entryDy=0;exitX=0.426;exitY=-0.014;exitDx=0;exitDy=0;exitPerimeter=0;" edge="1" parent="1" source="j0ca5MtTTBlyfuUzAhWS-3" target="j0ca5MtTTBlyfuUzAhWS-14">
          <mxGeometry width="100" height="100" relative="1" as="geometry">
            <mxPoint x="827" y="200" as="sourcePoint" />
            <mxPoint x="960" y="140" as="targetPoint" />
          </mxGeometry>
        </mxCell>
      </root>
    </mxGraphModel>
  </diagram>
</mxfile>
